# xmcd CD database file
#
# Track frame offsets:
#	150
#	14198
#	27654
#	45738
#	60740
#	77267
#	98551
#	123195
#	141580
#	158745
#	176396
#	190041
#	210436
#	228933
#	246292
#
# Disc length: 3560 seconds
#
# Revision: 0
# Processed by: cddbd v1.5.2PL0 Copyright (c) Steve Scherf et al.
# Submitted via: CDex 1.70beta3
#
DISCID=c20de60f
DTITLE=Lead - THE SHOWCASE
DYEAR=2016
DGENRE=VISION FACTORY
TTITLE0=Loud! Loud! Loud!
TTITLE1=Let's Get On It
TTITLE2=Zoom up
TTITLE3=Stand by me
TTITLE4=Still...
TTITLE5=My One
TTITLE6=Amazing
TTITLE7=サクラ
TTITLE8=約束
TTITLE9=Game
TTITLE10=志 ～KO.KO.RO.ZA.SHI.～
TTITLE11=想い出ブレイカ―
TTITLE12=GREEN DAYS
TTITLE13=Stand up Action
TTITLE14=Upturn
EXTD=YEAR: 2016
EXTT0=
EXTT1=
EXTT2=
EXTT3=
EXTT4=
EXTT5=
EXTT6=
EXTT7=
EXTT8=
EXTT9=
EXTT10=
EXTT11=
EXTT12=
EXTT13=
EXTT14=
PLAYORDER=
